<?xml version="1.0" encoding="UTF-8" standalone="no"?>
<svg
   xmlns:dc="http://purl.org/dc/elements/1.1/"
   xmlns:cc="http://creativecommons.org/ns#"
   xmlns:rdf="http://www.w3.org/1999/02/22-rdf-syntax-ns#"
   xmlns:svg="http://www.w3.org/2000/svg"
   xmlns="http://www.w3.org/2000/svg"
   id="svg17033"
   version="1.1"
   viewBox="0 0 300 131.36267"
   height="131.36267mm"
   width="300mm">
  <defs
     id="defs17027" />
  <metadata
     id="metadata17030">
    <rdf:RDF>
      <cc:Work
         rdf:about="">
        <dc:format>image/svg+xml</dc:format>
        <dc:type
           rdf:resource="http://purl.org/dc/dcmitype/StillImage" />
        <dc:title></dc:title>
      </cc:Work>
    </rdf:RDF>
  </metadata>
  <g
     transform="translate(173.05655,-83.152028)"
     id="layer1">
    <g
       transform="matrix(6.8682055,0,0,6.8682055,138.02211,-1617.8239)"
       id="g16976">
      <path
         d="M -1.6130356,266.78564 H -45.292568 v -19.1262 h 43.6795324 z"
         style="fill:#000000;fill-opacity:1;fill-rule:nonzero;stroke:none;stroke-width:0.35277778"
         id="path8425" />
      <path
         id="path8429"
         style="fill:#ffffff;fill-opacity:1;fill-rule:nonzero;stroke:none;stroke-width:0.35277778"
         d="m -43.749765,264.60942 0.564797,-0.21237 c 0.03422,-0.0152 0.0381,-0.0113 0.04551,0.0152 0.04198,0.1404 0.193675,0.25047 0.360538,0.25047 0.178153,0 0.265289,-0.0797 0.265289,-0.19332 0,-0.12524 -0.106186,-0.17075 -0.329847,-0.19721 -0.02646,-0.004 -0.06844,-0.008 -0.0949,-0.0116 -0.28822,-0.0226 -0.788458,-0.15522 -0.788458,-0.76941 0,-0.5916 0.382763,-0.97084 1.103136,-0.97084 0.53093,0 0.849489,0.22754 0.921455,0.55739 0.0074,0.0455 0.01129,0.049 -0.02646,0.0646 l -0.534811,0.1972 c -0.03034,0.0148 -0.03422,0.0148 -0.04551,-0.0155 -0.06068,-0.14005 -0.159102,-0.2159 -0.345016,-0.2159 -0.178153,0 -0.246239,0.0759 -0.246239,0.17815 0,0.1136 0.09842,0.1517 0.378883,0.19332 0.0381,0.008 0.08361,0.0116 0.136525,0.019 0.424745,0.0646 0.769761,0.24659 0.769761,0.78105 0,0.63324 -0.504119,0.98214 -1.133827,0.98214 -0.515409,0 -0.868187,-0.22367 -1.016,-0.58032 -0.02293,-0.0607 -0.01905,-0.0607 0.01517,-0.072" />
      <path
         id="path8433"
         style="fill:#ffffff;fill-opacity:1;fill-rule:nonzero;stroke:none;stroke-width:0.35277778"
         d="m -35.891111,265.13651 c 0,0.0303 -0.0039,0.0342 -0.0381,0.0342 h -0.822678 c -0.03775,0 -0.03775,0.004 -0.03775,-0.0342 v -1.82774 h -0.690033 c -0.02681,0 -0.02681,-0.004 -0.02681,-0.0265 v -0.64452 c 0,-0.0303 0,-0.0381 0.03069,-0.0381 h 2.248253 c 0.02646,0 0.03034,0.008 0.03034,0.0381 v 0.64452 c 0,0.0229 -0.0039,0.0265 -0.02646,0.0265 h -0.667456 z" />
      <path
         id="path8437"
         style="fill:#ffffff;fill-opacity:1;fill-rule:nonzero;stroke:none;stroke-width:0.35277778"
         d="m -30.978504,262.62272 c 0,-0.0229 0,-0.0229 0.01905,-0.0229 h 0.883356 c 0.02646,0 0.02646,0 0.02646,0.0303 v 1.46755 c 0,0.25788 0.113947,0.36407 0.318558,0.36407 0.201084,0 0.318559,-0.10266 0.318559,-0.36407 v -1.47108 c 0,-0.0229 0,-0.0268 0.02646,-0.0268 h 0.822678 c 0.01905,0 0.01905,0 0.01905,0.0268 v 1.63795 c 0,0.6103 -0.428273,1.00083 -1.247423,1.00083 -0.743302,0 -1.186744,-0.45509 -1.186744,-1.03893 z" />
      <path
         id="path8441"
         style="fill:#ffffff;fill-opacity:1;fill-rule:nonzero;stroke:none;stroke-width:0.35277778"
         d="m -23.24491,264.45769 h 0.174272 c 0.254,0 0.481542,-0.14005 0.481542,-0.58385 0,-0.41345 -0.204611,-0.56091 -0.473781,-0.56091 h -0.182033 z m -0.826558,0.71296 c -0.03422,0 -0.0381,0.004 -0.0381,-0.0342 v -2.49872 c 0,-0.0303 0.0039,-0.0378 0.0381,-0.0378 h 1.110897 c 0.872067,0 1.281642,0.45121 1.281642,1.28517 0,0.86819 -0.451203,1.28552 -1.376539,1.28552 z" />
      <path
         id="path8445"
         style="fill:#ffffff;fill-opacity:1;fill-rule:nonzero;stroke:none;stroke-width:0.35277778"
         d="m -16.485758,263.88912 v 1.24742 c 0,0.0303 -0.0039,0.0342 -0.03775,0.0342 h -0.8382 c -0.03775,0 -0.03775,0.004 -0.03775,-0.0342 v -1.24742 -1.25518 c 0,-0.0378 0,-0.0342 0.03775,-0.0342 h 0.8382 c 0.03387,0 0.03775,0.004 0.03775,0.0342 z" />
      <path
         id="path8449"
         style="fill:#ffffff;fill-opacity:1;fill-rule:nonzero;stroke:none;stroke-width:0.35277778"
         d="m -11.054074,263.88528 c 0,0.31468 0.197203,0.49671 0.481542,0.49671 0.27305,0 0.481541,-0.18944 0.481541,-0.49671 0,-0.29175 -0.189441,-0.47378 -0.481541,-0.47378 -0.295628,0 -0.481542,0.1972 -0.481542,0.47378 m 1.87325,0.007 c 0,0.80398 -0.6561667,1.36878 -1.391708,1.36878 -0.811389,0 -1.391709,-0.59867 -1.391709,-1.37231 0,-0.81527 0.633236,-1.36878 1.391709,-1.36878 0.7242524,0 1.391708,0.52705 1.391708,1.37231" />
      <path
         id="path8453"
         style="fill:#ffffff;fill-opacity:1;fill-rule:nonzero;stroke:none;stroke-width:0.35277778"
         d="m -5.2271733,264.60942 0.56515,-0.21237 c 0.033867,-0.0152 0.037747,-0.0113 0.045156,0.0152 0.041981,0.1404 0.193675,0.25047 0.3605389,0.25047 0.1781528,0 0.2652889,-0.0797 0.2652889,-0.19332 0,-0.12524 -0.1061861,-0.17075 -0.3298472,-0.19721 -0.026458,-0.004 -0.068439,-0.008 -0.094897,-0.0116 -0.2882195,-0.0226 -0.7888111,-0.15522 -0.7888111,-0.76941 0,-0.5916 0.3831166,-0.97084 1.1034888,-0.97084 0.5309306,0 0.8494889,0.22754 0.9214556,0.55739 0.00741,0.0455 0.011289,0.049 -0.026458,0.0646 l -0.5348111,0.1972 c -0.030339,0.0148 -0.034219,0.0148 -0.045508,-0.0155 -0.060678,-0.14005 -0.1591028,-0.2159 -0.3450166,-0.2159 -0.1781528,0 -0.2462389,0.0759 -0.2462389,0.17815 0,0.1136 0.098425,0.1517 0.3788833,0.19332 0.0381,0.008 0.083608,0.0116 0.136525,0.019 0.4247444,0.0646 0.7697611,0.24659 0.7697611,0.78105 0,0.63324 -0.5041194,0.98214 -1.1338278,0.98214 -0.5154083,0 -0.8681861,-0.22367 -1.0159999,-0.58032 -0.022931,-0.0607 -0.01905,-0.0607 0.015169,-0.072" />
      <path
         d="m -43.908974,261.09816 h 5.850114 v -5.8473 h -5.850114 z"
         style="fill:#ffffff;fill-opacity:1;fill-rule:nonzero;stroke:none;stroke-width:0.35277778"
         id="path8455" />
      <path
         d="m -43.908974,261.09816 h 5.850114 v -5.8473 h -5.850114 z"
         style="fill:#ffffff;fill-opacity:1;fill-rule:nonzero;stroke:none;stroke-width:0.35277778"
         id="path8457" />
      <path
         d="m -2.968055,255.25086 h -5.8490555 v -5.84835 h 5.8490555 z"
         style="fill:#000000;fill-opacity:1;fill-rule:nonzero;stroke:none;stroke-width:0.35277778"
         id="path8459" />
      <path
         d="m -20.51381,261.09816 h -5.847997 v -5.8473 h 5.847997 z"
         style="fill:#000000;fill-opacity:1;fill-rule:nonzero;stroke:none;stroke-width:0.35277778"
         id="path8461" />
      <path
         d="m -26.361455,261.09816 h -5.848349 v -5.8473 h 5.848349 z"
         style="fill:#ffffff;fill-opacity:1;fill-rule:nonzero;stroke:none;stroke-width:0.35277778"
         id="path8463" />
      <path
         d="m -32.210157,261.09816 h -5.849056 v -5.8473 h 5.849056 z"
         style="fill:#000000;fill-opacity:1;fill-rule:nonzero;stroke:none;stroke-width:0.35277778"
         id="path8465" />
      <path
         d="m -43.908974,261.09816 h 5.850114 v -5.8473 h -5.850114 z"
         style="fill:#ffffff;fill-opacity:1;fill-rule:nonzero;stroke:none;stroke-width:0.35277778"
         id="path8467" />
      <path
         d="m -43.908974,255.25086 h 5.850114 v -5.84835 h -5.850114 z"
         style="fill:#000000;fill-opacity:1;fill-rule:nonzero;stroke:none;stroke-width:0.35277778"
         id="path8469" />
      <path
         d="m -14.664402,255.25086 h -5.849055 v -5.84835 h 5.849055 z"
         style="fill:#000000;fill-opacity:1;fill-rule:nonzero;stroke:none;stroke-width:0.35277778"
         id="path8471" />
      <path
         d="m -8.8167577,255.25086 h -5.8479973 v -5.84835 h 5.8479973 z"
         style="fill:#ffffff;fill-opacity:1;fill-rule:nonzero;stroke:none;stroke-width:0.35277778"
         id="path8473" />
      <path
         d="m -14.664402,261.09816 h -5.849055 v -5.8473 h 5.849055 z"
         style="fill:#ffffff;fill-opacity:1;fill-rule:nonzero;stroke:none;stroke-width:0.35277778"
         id="path8475" />
      <path
         d="m -2.968055,261.09816 h -5.8490555 v -5.8473 h 5.8490555 z"
         style="fill:#ffffff;fill-opacity:1;fill-rule:nonzero;stroke:none;stroke-width:0.35277778"
         id="path8477" />
      <path
         d="m -32.210157,255.25086 h -5.849056 v -5.84835 h 5.849056 z"
         style="fill:#ffffff;fill-opacity:1;fill-rule:nonzero;stroke:none;stroke-width:0.35277778"
         id="path8479" />
      <path
         d="m -20.51381,255.25086 h -5.847997 v -5.84835 h 5.847997 z"
         style="fill:#ffffff;fill-opacity:1;fill-rule:nonzero;stroke:none;stroke-width:0.35277778"
         id="path8481" />
      <path
         d="m -26.361455,255.25086 h -5.848349 v -5.84835 h 5.848349 z"
         style="fill:#000000;fill-opacity:1;fill-rule:nonzero;stroke:none;stroke-width:0.35277778"
         id="path8483" />
      <path
         d="m -8.8167577,261.09816 h -5.8479973 v -5.8473 h 5.8479973 z"
         style="fill:#000000;fill-opacity:1;fill-rule:nonzero;stroke:none;stroke-width:0.35277778"
         id="path8485" />
      <path
         id="path8489"
         style="fill:#ffffff;fill-opacity:1;fill-rule:nonzero;stroke:none;stroke-width:0.35277778"
         d="m -23.437491,259.33279 0.591961,1.34867 h 1.490133 l 0.528461,-5.01191 h -1.56598 l -0.20955,1.99213 -0.835025,-1.81927 -0.836436,1.81927 -0.209197,-1.99213 h -1.565275 l 0.52705,5.01191 h 1.491191 z" />
      <path
         id="path8493"
         style="fill:#000000;fill-opacity:1;fill-rule:nonzero;stroke:none;stroke-width:0.35277778"
         d="m -20.931252,249.8195 h -5.013678 v 1.46332 h 1.567039 v 3.55071 h 1.879953 v -3.55071 h 1.566686 z" />
      <path
         id="path8497"
         style="fill:#000000;fill-opacity:1;fill-rule:nonzero;stroke:none;stroke-width:0.35277778"
         d="m -26.780166,255.66951 h -5.012972 v 1.46156 h 1.566686 v 3.55035 h 1.8796 v -3.55035 h 1.566686 z" />
      <path
         id="path8509"
         style="fill:#ffffff;fill-opacity:1;fill-rule:nonzero;stroke:none;stroke-width:0.35277778"
         d="m -40.063061,252.79257 c -0.162983,0.28293 -0.467078,0.47343 -0.815622,0.47343 -0.5207,0 -0.941917,-0.42051 -0.941917,-0.93945 0,-0.51858 0.421217,-0.9398 0.941917,-0.9398 0.348544,0 0.652639,0.19121 0.815622,0.47413 l 1.449917,-0.82973 c -0.449086,-0.78422 -1.296106,-1.31551 -2.265539,-1.31551 -1.443214,0 -2.611967,1.16946 -2.611967,2.61091 0,1.44251 1.168753,2.61091 2.611967,2.61091 0.969433,0 1.816453,-0.52882 2.265539,-1.31445 z" />
      <path
         id="path8513"
         style="fill:#ffffff;fill-opacity:1;fill-rule:nonzero;stroke:none;stroke-width:0.35277778"
         d="m -17.588401,249.71568 c -1.443919,0 -2.611261,1.16946 -2.611261,2.61091 0,1.44321 1.167342,2.61091 2.611261,2.61091 1.440744,0 2.610908,-1.1677 2.610908,-2.61091 0,-1.44145 -1.170164,-2.61091 -2.610908,-2.61091 m 0,3.55036 c -0.521053,0 -0.940506,-0.42052 -0.940506,-0.93945 0,-0.51859 0.419453,-0.9398 0.940506,-0.9398 0.517172,0 0.9398,0.42121 0.9398,0.9398 0,0.51893 -0.422628,0.93945 -0.9398,0.93945" />
      <path
         id="path8517"
         style="fill:#000000;fill-opacity:1;fill-rule:nonzero;stroke:none;stroke-width:0.35277778"
         d="m -11.740509,249.71568 c -1.442508,0 -2.611967,1.16946 -2.611967,2.61091 0,1.44321 1.169459,2.61091 2.611967,2.61091 1.442156,0 2.6119666,-1.1677 2.6119666,-2.61091 0,-1.44145 -1.1698106,-2.61091 -2.6119666,-2.61091 m 0,3.55036 c -0.519642,0 -0.940506,-0.42052 -0.940506,-0.93945 0,-0.51859 0.420864,-0.9398 0.940506,-0.9398 0.519289,0 0.9398,0.42121 0.9398,0.9398 0,0.51893 -0.420511,0.93945 -0.9398,0.93945" />
      <path
         id="path8521"
         style="fill:#000000;fill-opacity:1;fill-rule:nonzero;stroke:none;stroke-width:0.35277778"
         d="m -17.588401,255.56462 c -1.443919,0 -2.611261,1.16911 -2.611261,2.61126 0,1.44075 1.167342,2.6102 2.611261,2.6102 1.440744,0 2.610908,-1.16945 2.610908,-2.6102 0,-1.44215 -1.170164,-2.61126 -2.610908,-2.61126 m 0,3.55212 c -0.521053,0 -0.940506,-0.42157 -0.940506,-0.94086 0,-0.51894 0.419453,-0.94086 0.940506,-0.94086 0.517172,0 0.9398,0.42192 0.9398,0.94086 0,0.51929 -0.422628,0.94086 -0.9398,0.94086" />
      <path
         id="path8525"
         style="fill:#000000;fill-opacity:1;fill-rule:nonzero;stroke:none;stroke-width:0.35277778"
         d="m -38.476796,260.68138 v -5.01191 h -1.671814 v 2.08703 l -1.672166,-2.08703 h -1.669698 v 5.01191 h 1.669698 v -2.0888 l 1.672166,2.0888 z" />
      <path
         id="path8529"
         style="fill:#ffffff;fill-opacity:1;fill-rule:nonzero;stroke:none;stroke-width:0.35277778"
         d="m -3.4932706,254.78308 v -4.91314 h -1.6400639 v 2.04823 l -1.6361832,-2.04823 h -1.5211778 v 4.91314 h 1.6383 v -2.04611 l 1.6379472,2.04611 z" />
      <path
         id="path8533"
         style="fill:#ffffff;fill-opacity:1;fill-rule:nonzero;stroke:none;stroke-width:0.35277778"
         d="m -32.941465,257.13092 v -1.46156 h -4.386792 v 5.01192 h 4.386792 v -1.35749 h -2.715683 v -0.50095 h 2.296936 v -1.25518 h -2.296936 v -0.43674 z" />
      <path
         id="path8545"
         style="fill:#ffffff;fill-opacity:1;fill-rule:nonzero;stroke:none;stroke-width:0.35277778"
         d="m -26.780166,251.59654 c 0,-0.91017 -0.719667,-1.77694 -1.879953,-1.77694 h -1.252361 -1.044928 -0.626533 v 5.01368 h 1.671461 v -1.46156 h 0.529872 l 0.735895,1.46156 h 1.866547 l -0.995186,-1.66617 c 0.582789,-0.29775 0.995186,-0.889 0.995186,-1.57057 m -3.132314,-0.31362 h 1.042458 c 0.231423,0 0.4191,0.18591 0.4191,0.41769 0,0.23036 -0.187677,0.41698 -0.4191,0.41698 h -1.042458 z" />
      <path
         id="path8549"
         style="fill:#ffffff;fill-opacity:1;fill-rule:nonzero;stroke:none;stroke-width:0.35277778"
         d="m -9.2342349,257.44391 c 0,-0.91017 -0.7193139,-1.77447 -1.8803051,-1.77447 h -2.924528 v 5.01191 h 1.671108 v -1.46226 h 0.532342 l 0.734483,1.46226 h 1.8669001 l -0.9934221,-1.66687 c 0.5813777,-0.29704 0.9934221,-0.88759 0.9934221,-1.57057 M -12.36796,257.131 h 1.045633 c 0.229306,0 0.418042,0.18767 0.418042,0.41733 0,0.23107 -0.188736,0.41804 -0.418042,0.41804 h -1.045633 z" />
      <path
         id="path8553"
         style="fill:#000000;fill-opacity:1;fill-rule:nonzero;stroke:none;stroke-width:0.35277778"
         d="m -3.2815334,255.66951 h -2.1487694 l -1.0886722,1.64042 v -1.64042 h -1.8273888 v 5.01191 h 1.8273888 v -1.86901 l 1.0886722,1.86901 h 2.1487694 l -1.7413111,-2.60067 z" />
      <path
         id="path8557"
         style="fill:#000000;fill-opacity:1;fill-rule:nonzero;stroke:none;stroke-width:0.35277778"
         d="m -34.30026,254.83339 h 1.775883 l -1.254125,-5.01403 h -1.356783 -1.357489 l -1.254478,5.01403 h 1.785761 l 0.1905,-0.83538 h 1.279878 z m -1.185333,-2.0888 0.350308,-1.54022 0.354542,1.54022 z" />
      <path
         id="path8561"
         style="fill:#ffffff;fill-opacity:1;fill-rule:nonzero;stroke:none;stroke-width:0.35277778"
         d="m -2.8502978,264.92498 v 0.0596 h 0.1008944 v 0.27693 h 0.071967 v -0.27693 h 0.099836 v -0.0596 z" />
      <path
         id="path8573"
         style="fill:#ffffff;fill-opacity:1;fill-rule:nonzero;stroke:none;stroke-width:0.35277778"
         d="m -2.312982,264.92505 h 0.1008944 v 0.33655 h -0.065617 v -0.22648 -0.0282 c 0,-0.0109 0.00106,-0.0205 0.00106,-0.0268 l -0.064205,0.28152 h -0.068792 l -0.062795,-0.28152 v 0.0268 c 0.00141,0.0124 0.00141,0.0212 0.00141,0.0282 v 0.22648 h -0.067028 v -0.33655 h 0.1030111 l 0.061383,0.26458 z" />
    </g>
  </g>
</svg>
